# xmcd
#
# Track frame offsets: 
#        150
#        10700
#        23122
#        35672
#        47200
#        59627
#        72982
#        84945
#        95687
#        108325
#        120372
#        135357
#        145425
#        156610
#
# Disc length: 2225 seconds
#
# Revision: 0
# Processed by: cddbd v1.5.2PL0 Copyright (c) Steve Scherf et al.
# Submitted via: ExactAudioCopy v0.99pb4
#
DISCID=c008af0e
DTITLE=Starliners - Rhythm Round Up
DYEAR=1900
DGENRE=Country
TTITLE0=The Wiggy Riffin'
TTITLE1=Cool Down Mame
TTITLE2=Gonna' Be Some Changes
TTITLE3=Mr. Hopeless
TTITLE4=I Done Did It
TTITLE5=Bovine Boogie
TTITLE6=Runnin' The Reds
TTITLE7=Blues For You
TTITLE8=Cowboy Shirt
TTITLE9=Stranger To Me
TTITLE10=Charming Betsy
TTITLE11=I'm A Lucky Guy
TTITLE12=Dig That Ford
TTITLE13=Bop Cat Bop
EXTD=
EXTT0=
EXTT1=
EXTT2=
EXTT3=
EXTT4=
EXTT5=
EXTT6=
EXTT7=
EXTT8=
EXTT9=
EXTT10=
EXTT11=
EXTT12=
EXTT13=
PLAYORDER=
